HIERARCHY
ROOT Hips
{
    OFFSET 0.0 0.0 0.0
    CHANNELS 6 Xposition Yposition Zposition Zrotation Xrotation Yrotation
    JOINT LeftHipJoint
    {
        OFFSET 0.1 0.0 0.0
        CHANNELS 3 Zrotation Xrotation Yrotation
        JOINT LeftUpLeg
        {
            OFFSET 127.92977018678542 0.0 0.0
            CHANNELS 3 Zrotation Xrotation Yrotation
            JOINT LeftLeg
            {
                OFFSET 0.0 0.0 -416.88823505244693
                CHANNELS 3 Zrotation Xrotation Yrotation
                JOINT LeftFoot
                {
                    OFFSET 0.0 0.0 -385.9420302165493
                    CHANNELS 3 Zrotation Xrotation Yrotation
                    End Site
                    {
                        OFFSET 0.0 -0.1 0.0
                    }
                }
            }
        }
    }
    JOINT LowerBack
    {
        OFFSET 0.0 0.0 0.1
        CHANNELS 3 Zrotation Xrotation Yrotation
        JOINT Spine
        {
            OFFSET 0.0 0.0 222.45700798828966
            CHANNELS 3 Zrotation Xrotation Yrotation
            JOINT Spine1
            {
                OFFSET 0.0 0.0 252.15658779956337
                CHANNELS 3 Zrotation Xrotation Yrotation
                JOINT LeftShoulder
                {
                    OFFSET 0.1 0.0 0.0
                    CHANNELS 3 Zrotation Xrotation Yrotation
                    JOINT LeftArm
                    {
                        OFFSET 143.11070934943018 0.0 0.0
                        CHANNELS 3 Zrotation Xrotation Yrotation
                        JOINT LeftForeArm
                        {
                            OFFSET 262.45917615446456 0.0 0.0
                            CHANNELS 3 Zrotation Xrotation Yrotation
                            JOINT LeftHand
                            {
                                OFFSET 231.21049509260376 0.0 0.0
                                CHANNELS 3 Zrotation Xrotation Yrotation
                                End Site
                                {
                                    OFFSET 0.1 0.0 0.0
                                }
                            }
                        }
                    }
                }
                JOINT Neck
                {
                    OFFSET 0.0 0.0 0.1
                    CHANNELS 3 Zrotation Xrotation Yrotation
                    JOINT Neck1
                    {
                        OFFSET 0.0 0.0 97.80916323952368
                        CHANNELS 3 Zrotation Xrotation Yrotation
                        End Site
                        {
                            OFFSET 0.0 0.0 108.61479650297025
                        }
                    }
                }
                JOINT RightShoulder
                {
                    OFFSET -0.1 0.0 0.0
                    CHANNELS 3 Zrotation Xrotation Yrotation
                    JOINT RightArm
                    {
                        OFFSET -143.11070934943018 0.0 0.0
                        CHANNELS 3 Zrotation Xrotation Yrotation
                        JOINT RightForeArm
                        {
                            OFFSET -262.45917615446456 0.0 0.0
                            CHANNELS 3 Zrotation Xrotation Yrotation
                            JOINT RightHand
                            {
                                OFFSET -231.21049509260376 0.0 0.0
                                CHANNELS 3 Zrotation Xrotation Yrotation
                                End Site
                                {
                                    OFFSET -0.1 0.0 0.0
                                }
                            }
                        }
                    }
                }
            }
        }
    }
    JOINT RightHipJoint
    {
        OFFSET -0.1 0.0 0.0
        CHANNELS 3 Zrotation Xrotation Yrotation
        JOINT RightUpLeg
        {
            OFFSET -127.92977018678542 0.0 0.0
            CHANNELS 3 Zrotation Xrotation Yrotation
            JOINT RightLeg
            {
                OFFSET 0.0 0.0 -416.88823505244693
                CHANNELS 3 Zrotation Xrotation Yrotation
                JOINT RightFoot
                {
                    OFFSET 0.0 0.0 -385.9420302165493
                    CHANNELS 3 Zrotation Xrotation Yrotation
                    End Site
                    {
                        OFFSET 0.0 -0.1 0.0
                    }
                }
            }
        }
    }
}
MOTION
Frames: 10
Frame Time: 0.03333333333333333
0.0 0.0 803.7576251345563 23.15472665504784 10.667943676155037 8.817098831890384 0.0 0.0 -3.975693351829396e-16 -1.4064453132456196 -18.75364264446194 -4.853505931022241 -0.1546403771285159 17.66167804148071 -0.41121021237912536 0.0 0.0 -3.975693351829396e-16 0.0 0.0 -3.975693351829396e-16 0.5020621686480835 6.905367585005415 2.07201017378815 -8.653141507881868 1.6522578077558234e-15 4.5107654642277065e-15 0.0 0.0 1.5902773407317584e-15 -15.341266423177863 -39.68867015480775 45.97574477190131 -148.2064210542947 9.176758934007713e-15 -2.6135126177474373e-15 -3.1805546814635176e-15 0.0 0.0 0.0 0.0 1.5902773407317584e-15 11.186930798768437 -5.224118270295924 -4.943213124824091 0.0 0.0 1.5902773407317584e-15 62.7812051792263 49.57954914398333 -91.51036068464161 98.8737639130418 -6.959354533333755e-16 -8.969007665234187e-15 -3.1805546814635168e-15 0.0 0.0 0.0 0.0 -3.975693351829396e-16 -1.465242996061053 -19.448935951848622 -10.56594381736617 -3.181184504887059 27.15831836206575 2.276762293914926 -1.1379602174660566e-32 -3.2799470152592518e-15 -3.975693351829396e-16
0.0 0.0 803.7576251345563 23.113765071833416 10.721502944539381 8.781865194415042 0.0 0.0 7.951386703658792e-16 -1.4110905206893478 -18.885533835082068 -4.752253298124636 -0.12762228131106745 17.724994444124935 -0.5298332749751664 0.0 0.0 -1.987846675914698e-16 0.0 0.0 7.951386703658792e-16 0.4959408169851335 6.850474161535969 2.0703913632259785 -8.671203200230822 -7.270429803952748e-16 4.330692370805171e-15 0.0 0.0 1.1927080055488188e-15 -15.3233184937132 -39.838198590170585 45.8244429638061 -148.17884032760094 0.0 -0.0 -3.1805546814635164e-15 -1.7655625192200634e-31 6.361109362927033e-15 0.0 0.0 1.1927080055488188e-15 11.219972606379221 -5.079516188226066 -4.855447156331717 0.0 0.0 1.1927080055488188e-15 62.607115440951084 49.57161006108069 -91.45793492247172 98.63983369481811 -9.648034124463698e-15 -8.292785228236404e-15 0.0 0.0 0.0 0.0 0.0 7.951386703658792e-16 -1.4729808311095591 -19.619425818522224 -10.55020352614909 -3.195233009972806 27.26847560481801 2.3408198449635274 0.0 0.0 -3.975693351829396e-16
0.0 0.0 803.7576251345563 23.058949229521684 10.83680144394114 8.758487724036316 0.0 0.0 -3.975693351829396e-16 -1.3985649356918453 -19.079385699577333 -4.63601806904676 -0.11601773885639723 17.69872658801688 -0.7240968995542305 0.0 0.0 0.0 0.0 0.0 -3.975693351829396e-16 0.4809317751806428 6.777241578416641 2.033454760048379 -8.650229059002498 -2.1021176958130252e-15 1.4358334236044673e-15 0.0 0.0 -3.975693351829396e-16 -14.997275696792688 -40.06949169187656 45.85725832383665 -148.12112221900023 -8.739290855671833e-15 1.5726871715535626e-14 -3.180554681463516e-15 -1.5902773407317582e-15 6.361109362927032e-15 0.0 0.0 -3.975693351829396e-16 11.310508720302634 -5.2003424372098035 -4.842962541546344 0.0 0.0 -3.975693351829396e-16 62.38554990447952 49.60937928868206 -91.34521343217614 98.52056036340483 1.4074185610756339e-15 -1.138095945239562e-14 0.0 0.0 0.0 0.0 0.0 -3.975693351829396e-16 -1.4522346900145102 -19.722317434958143 -10.542034841693132 -3.201669655143649 27.0323334899911 2.470169147270265 0.0 0.0 0.0
0.0 0.0 803.7576251345563 22.974967859323662 10.87359489861202 8.7763168111903 -3.1805546814635168e-15 1.1034765745125397e-32 -3.975693351829396e-16 -1.4070516878487256 -19.201852826347938 -4.629350498254809 -0.11528550324584234 17.88642693816502 -0.8011873089411851 -6.896728590703373e-34 -1.9878466759146977e-16 -3.9756933518293955e-16 -3.1805546814635168e-15 1.1034765745125397e-32 -3.975693351829396e-16 0.4812386442402165 6.787019794647447 2.0145713263822445 -8.630626708506425 -4.861878498113777e-16 1.159411547930171e-15 0.0 0.0 -1.1927080055488188e-15 -14.731583140881765 -40.14591331013694 45.9345496190878 -147.99879895047772 -5.2602703609769866e-15 -1.8344017190176435e-14 0.0 0.0 0.0 0.0 0.0 -1.1927080055488188e-15 11.291561741107785 -5.229301716018141 -4.816587685072494 0.0 0.0 -1.1927080055488188e-15 62.18045924450512 49.536500485669215 -91.23336017737822 98.32138622648445 -6.526932888428535e-16 -8.972258139673397e-15 0.0 0.0 0.0 -3.1805546814635168e-15 1.1034765745125397e-32 -3.975693351829396e-16 -1.461770754168106 -19.856071541148506 -10.616973773156992 -3.2514353374702676 27.11146972736813 2.5795171940461414 0.0 0.0 -3.975693351829396e-16
0.0 0.0 803.7576251345563 22.9741618941165 10.895611278206147 8.799109657501202 0.0 0.0 -3.975693351829396e-16 -1.407898899796932 -19.308076879430704 -4.703909052271041 -0.14848641289881795 18.19826081398744 -0.7240575089729226 0.0 0.0 1.987846675914698e-16 0.0 0.0 -3.975693351829396e-16 0.4777121112943159 6.773397773947273 1.946630668785275 -8.594231799277884 -2.417690677312659e-15 -4.9659457720007115e-15 -3.1805546814635168e-15 1.4345195468663017e-31 -5.168401357378215e-15 -14.639782355226734 -40.1884112235557 45.880387279000296 -147.71349650139805 -3.5372838168223636e-15 -1.2220575784623182e-14 -3.1805546814635168e-15 0.0 0.0 -3.1805546814635168e-15 1.4345195468663017e-31 -5.168401357378215e-15 11.253062286349142 -5.12382616581398 -4.829964156191795 -3.1805546814635168e-15 1.4345195468663017e-31 -5.168401357378215e-15 61.94844688544811 49.50179425392276 -91.09871567042914 98.13203117807883 -4.167729043592535e-15 4.805595378963278e-15 0.0 0.0 0.0 0.0 0.0 -3.975693351829396e-16 -1.4562573027834 -19.883947439497014 -10.657716744683375 -3.2909998282436406 27.16094015096029 2.5540178173260752 0.0 0.0 3.975693351829396e-16
0.0 0.0 803.7576251345563 22.93783517297057 10.920334566283215 8.83074764857317 0.0 0.0 -3.975693351829396e-16 -1.4212722101446882 -19.43816166614016 -4.776054187803446 -0.17135524984878647 18.540086964167422 -0.6440062027122181 -1.6552148617688095e-32 -1.5902773407317584e-15 -1.1927080055488188e-15 0.0 0.0 -3.975693351829396e-16 0.4810322650631892 6.8049556501486315 1.878054788678466 -8.526865052552639 -2.8639528623150096e-15 9.825140337676245e-16 0.0 0.0 0.0 -14.432246076376428 -40.23512779793246 45.924673941353035 -147.4855606766107 -1.1449135180183854e-14 -1.653948085331146e-14 0.0 0.0 0.0 0.0 0.0 0.0 11.223098487294633 -5.081763340694078 -4.834109714306719 0.0 0.0 0.0 61.76659173147217 49.39621030967591 -91.06121597263588 98.00018590301549 9.601593894731113e-15 8.346510887139252e-15 -3.1805546814635168e-15 0.0 0.0 0.0 0.0 -3.975693351829396e-16 -1.462428295777115 -19.919825502079316 -10.718677739014057 -3.3436651332699663 27.345691757912675 2.4898702373750226 0.0 0.0 3.975693351829396e-16
0.0 0.0 803.7576251345563 22.779880277346425 11.076956172368593 8.826847338464129 0.0 0.0 3.975693351829396e-16 -1.423760067730787 -19.592895136080333 -4.778115405519455 -0.1806814742090483 18.566455614611613 -0.5540296185265481 -5.517382872562698e-33 -1.5902773407317584e-15 -3.975693351829396e-16 0.0 0.0 3.975693351829396e-16 0.4790245901150576 6.82286427037727 1.8934713712426592 -8.49414261774263 3.699789011768717e-15 3.862728358903597e-15 0.0 0.0 -3.975693351829396e-16 -14.36139830021573 -40.31543043544178 45.83763745034862 -147.2899624800799 -1.79121359363999e-15 -6.103709215639067e-15 3.1805546814635168e-15 0.0 0.0 0.0 0.0 -3.975693351829396e-16 11.190041257622218 -5.0965395612311415 -4.75793970980973 0.0 0.0 -3.975693351829396e-16 61.544478330083635 49.22547530916127 -90.84140582116834 97.92389251206211 2.0882254095383224e-15 -2.399008695427759e-15 3.1805546814635168e-15 0.0 0.0 0.0 0.0 3.975693351829396e-16 -1.4759103072895445 -20.215636608819583 -10.69446076799339 -3.3394233857149325 27.327747888786067 2.456551403675864 0.0 0.0 0.0
0.0 0.0 803.7576251345563 22.625479755633503 11.20724718630242 8.86109153777712 0.0 0.0 7.951386703658792e-16 -1.4197863006398392 -19.71644146771426 -4.825467037828616 -0.21011081103510112 18.654200368918406 -0.562509614035353 0.0 0.0 -3.975693351829396e-16 0.0 0.0 7.951386703658792e-16 0.476923065741379 6.857985275861689 1.8130025719724976 -8.45658778448777 -1.6445750241188951e-15 6.757222177791909e-16 0.0 0.0 -3.975693351829396e-16 -14.114340644514195 -40.505844709614074 45.925128183060195 -147.2039510265258 1.255387032247024e-15 -7.000260267173176e-15 0.0 0.0 0.0 0.0 0.0 -3.975693351829396e-16 11.226024667818901 -5.176243284156619 -4.656632389284098 0.0 0.0 -3.975693351829396e-16 61.55947557332672 49.1695384737972 -90.73114174361599 97.94058988754591 1.3351939786476254e-14 1.3726911411632964e-14 0.0 0.0 0.0 0.0 0.0 7.951386703658792e-16 -1.4749159691647196 -20.381284368256644 -10.708730942086323 -3.364156477621527 27.316624703406532 2.4796855473754746 0.0 0.0 0.0
0.0 0.0 803.7576251345563 22.52531917563044 11.325280949975152 8.92919318315742 -1.6552148617688095e-32 -1.5902773407317584e-15 -1.1927080055488188e-15 -1.4453920101356381 -19.89485833744099 -4.9205999084081045 -0.23051453926567322 18.759495364862126 -0.5270251948688488 0.0 0.0 -7.951386703658792e-16 -1.6552148617688095e-32 -1.5902773407317584e-15 -1.1927080055488188e-15 0.4784893382532212 6.825370223521558 1.7396991456154414 -8.432708713422219 -3.906472390627851e-15 -1.0852910181854412e-15 0.0 0.0 -7.951386703658792e-16 -13.958212791472215 -40.53775714230568 45.99255092017802 -147.1280016123247 1.2507470986516073e-15 -7.001090779593709e-15 0.0 0.0 6.3611093629270335e-15 0.0 0.0 -7.951386703658792e-16 11.291358408168579 -5.223981480848787 -4.573750646872275 0.0 0.0 -7.951386703658792e-16 61.38542056800208 49.12556636081852 -90.52468480198405 97.79289915064011 -8.975172879164511e-15 6.113071595734427e-16 0.0 0.0 0.0 -1.6552148617688095e-32 -1.5902773407317584e-15 -1.1927080055488188e-15 -1.4974309637899241 -20.513786634528707 -10.822675946213648 -3.4002528544809834 27.290847435965873 2.5804477455250834 0.0 0.0 0.0
0.0 0.0 803.7576251345563 22.4757487889402 11.309114702502683 8.902135850700502 0.0 0.0 0.0 -1.4395289267909335 -19.92764333787531 -4.866848231493895 -0.22089921855175038 18.80685786156417 -0.5918953786723667 0.0 0.0 -3.975693351829396e-16 0.0 0.0 0.0 0.4758548763595456 6.827400105968001 1.7005970215393948 -8.382625197717884 -2.2628078161803905e-15 -1.7603671075882924e-15 0.0 0.0 7.951386703658792e-16 -13.815946312882716 -40.427478748335666 46.13983085592005 -147.03074869839753 3.610031996314485e-15 1.2199283515602772e-14 0.0 0.0 6.3611093629270335e-15 0.0 0.0 7.951386703658792e-16 11.355538454198404 -5.157151656536403 -4.522280809247272 0.0 0.0 7.951386703658792e-16 61.2445141717923 49.052324324485554 -90.3731055097589 97.57059307321848 6.286835708157069e-15 -7.177677167068512e-15 3.1805546814635168e-15 0.0 0.0 0.0 0.0 0.0 -1.484092788542257 -20.45453456481476 -10.834983840444082 -3.40354964073288 27.175327078518226 2.7024718034137822 3.4483642953516864e-34 -9.93923337957349e-17 3.975693351829396e-16
